<mxfile host="app.diagrams.net" modified="2023-11-07T00:00:00.000Z" agent="5.0 (Macintosh)" etag="987654321" version="15.5.0" type="device">
  <diagram id="pr-description-flow" name="PR Description Generation Flow">
    <mxGraphModel dx="1298" dy="834" grid="1" gridSize="10" guides="1" tooltips="1" connect="1" arrows="1" fold="1" page="1" pageScale="1" pageWidth="850" pageHeight="1100" math="0" shadow="0">
      <root>
        <mxCell id="0" />
        <mxCell id="1" parent="0" />
        <!-- Main background -->
        <mxCell id="2" value="" style="rounded=1;whiteSpace=wrap;html=1;fillColor=#F5F5F5;strokeColor=#CCCCCC;strokeWidth=2;" vertex="1" parent="1">
          <mxGeometry x="50" y="50" width="700" height="500" as="geometry" />
        </mxCell>
        <mxCell id="3" value="PR Description Generation Flow" style="text;html=1;strokeColor=none;fillColor=none;align=center;verticalAlign=middle;whiteSpace=wrap;rounded=0;fontSize=20;fontStyle=1;" vertex="1" parent="1">
          <mxGeometry x="250" y="10" width="300" height="30" as="geometry" />
        </mxCell>
        
        <!-- Process Steps -->
        <mxCell id="4" value="User Triggers &quot;Generate PR Description&quot; Command" style="rounded=1;whiteSpace=wrap;html=1;fillColor=#C586C0;strokeColor=#333333;strokeWidth=2;fontColor=#FFFFFF;fontSize=14;" vertex="1" parent="1">
          <mxGeometry x="100" y="100" width="600" height="60" as="geometry" />
        </mxCell>
        
        <mxCell id="5" value="GitDiffReader Extracts Staged/Unstaged Changes" style="rounded=1;whiteSpace=wrap;html=1;fillColor=#569CD6;strokeColor=#333333;strokeWidth=2;fontColor=#FFFFFF;fontSize=14;" vertex="1" parent="1">
          <mxGeometry x="100" y="180" width="600" height="60" as="geometry" />
        </mxCell>
        
        <mxCell id="6" value="TemplateManager Retrieves Selected Template" style="rounded=1;whiteSpace=wrap;html=1;fillColor=#4FC1FF;strokeColor=#333333;strokeWidth=2;fontSize=14;" vertex="1" parent="1">
          <mxGeometry x="100" y="260" width="600" height="60" as="geometry" />
        </mxCell>
        
        <mxCell id="7" value="AIServiceFactory Creates Provider-Specific Service" style="rounded=1;whiteSpace=wrap;html=1;fillColor=#CE9178;strokeColor=#333333;strokeWidth=2;fontSize=14;" vertex="1" parent="1">
          <mxGeometry x="100" y="340" width="600" height="60" as="geometry" />
        </mxCell>
        
        <mxCell id="8" value="AI Service Generates PR Description Based on Diff &amp; Template" style="rounded=1;whiteSpace=wrap;html=1;fillColor=#6A9955;strokeColor=#333333;strokeWidth=2;fontColor=#FFFFFF;fontSize=14;" vertex="1" parent="1">
          <mxGeometry x="100" y="420" width="600" height="60" as="geometry" />
        </mxCell>
        
        <mxCell id="9" value="VS Code Opens Generated Description in Editor" style="rounded=1;whiteSpace=wrap;html=1;fillColor=#007ACC;strokeColor=#333333;strokeWidth=2;fontColor=#FFFFFF;fontSize=14;" vertex="1" parent="1">
          <mxGeometry x="100" y="500" width="600" height="60" as="geometry" />
        </mxCell>
        
        <!-- Arrows -->
        <mxCell id="10" value="" style="endArrow=classic;html=1;strokeWidth=2;exitX=0.5;exitY=1;exitDx=0;exitDy=0;entryX=0.5;entryY=0;entryDx=0;entryDy=0;" edge="1" parent="1" source="4" target="5">
          <mxGeometry width="50" height="50" relative="1" as="geometry">
            <mxPoint x="400" y="170" as="sourcePoint" />
            <mxPoint x="450" y="120" as="targetPoint" />
          </mxGeometry>
        </mxCell>
        
        <mxCell id="11" value="" style="endArrow=classic;html=1;strokeWidth=2;exitX=0.5;exitY=1;exitDx=0;exitDy=0;entryX=0.5;entryY=0;entryDx=0;entryDy=0;" edge="1" parent="1" source="5" target="6">
          <mxGeometry width="50" height="50" relative="1" as="geometry">
            <mxPoint x="400" y="250" as="sourcePoint" />
            <mxPoint x="450" y="200" as="targetPoint" />
          </mxGeometry>
        </mxCell>
        
        <mxCell id="12" value="" style="endArrow=classic;html=1;strokeWidth=2;exitX=0.5;exitY=1;exitDx=0;exitDy=0;entryX=0.5;entryY=0;entryDx=0;entryDy=0;" edge="1" parent="1" source="6" target="7">
          <mxGeometry width="50" height="50" relative="1" as="geometry">
            <mxPoint x="400" y="330" as="sourcePoint" />
            <mxPoint x="450" y="280" as="targetPoint" />
          </mxGeometry>
        </mxCell>
        
        <mxCell id="13" value="" style="endArrow=classic;html=1;strokeWidth=2;exitX=0.5;exitY=1;exitDx=0;exitDy=0;entryX=0.5;entryY=0;entryDx=0;entryDy=0;" edge="1" parent="1" source="7" target="8">
          <mxGeometry width="50" height="50" relative="1" as="geometry">
            <mxPoint x="400" y="410" as="sourcePoint" />
            <mxPoint x="450" y="360" as="targetPoint" />
          </mxGeometry>
        </mxCell>
        
        <mxCell id="14" value="" style="endArrow=classic;html=1;strokeWidth=2;exitX=0.5;exitY=1;exitDx=0;exitDy=0;entryX=0.5;entryY=0;entryDx=0;entryDy=0;" edge="1" parent="1" source="8" target="9">
          <mxGeometry width="50" height="50" relative="1" as="geometry">
            <mxPoint x="400" y="490" as="sourcePoint" />
            <mxPoint x="450" y="440" as="targetPoint" />
          </mxGeometry>
        </mxCell>
      </root>
    </mxGraphModel>
  </diagram>
</mxfile> 